#tb 0: 2/25
#tb 1: 2/25
0,          0,          0,        1,   228111, 0xdd671545
0,          1,          1,        1,   228111, 0x25a081a0
1,          1,          1,        1,   228111, 0x2324f098
